<svg width="20" height="12" viewBox="0 0 20 12" fill="none" xmlns="http://www.w3.org/2000/svg">
<path d="M3.79241e-07 6C-0.000428302 4.89897 0.362579 3.82858 1.03269 2.95495C1.70279 2.08133 2.64253 1.45332 3.70605 1.16838C4.76957 0.883445 5.89741 0.95752 6.91453 1.37911C7.93164 1.8007 8.78116 2.54623 9.33125 3.49999H17.5C17.5821 3.49985 17.6635 3.51589 17.7394 3.54721C17.8153 3.57852 17.8844 3.62449 17.9425 3.68249L19.8175 5.5575C19.8757 5.61555 19.9219 5.68452 19.9534 5.76045C19.9849 5.83638 20.0011 5.91779 20.0011 6C20.0011 6.0822 19.9849 6.16361 19.9534 6.23954C19.9219 6.31547 19.8757 6.38444 19.8175 6.4425L17.9425 8.3175C17.8844 8.3757 17.8155 8.42188 17.7395 8.45339C17.6636 8.48489 17.5822 8.50111 17.5 8.50111C17.4178 8.50111 17.3364 8.48489 17.2605 8.45339C17.1845 8.42188 17.1156 8.3757 17.0575 8.3175L16.25 7.50875L15.4425 8.3175C15.3844 8.3757 15.3155 8.42188 15.2395 8.45339C15.1636 8.48489 15.0822 8.50111 15 8.50111C14.9178 8.50111 14.8364 8.48489 14.7605 8.45339C14.6845 8.42188 14.6156 8.3757 14.5575 8.3175L13.75 7.50875L12.9425 8.3175C12.8844 8.3757 12.8155 8.42188 12.7395 8.45339C12.6636 8.48489 12.5822 8.50111 12.5 8.50111C12.4178 8.50111 12.3364 8.48489 12.2605 8.45339C12.1845 8.42188 12.1156 8.3757 12.0575 8.3175L11.25 7.50875L10.4425 8.3175C10.3844 8.3755 10.3153 8.42147 10.2394 8.45279C10.1635 8.4841 10.0821 8.50014 10 8.5H9.33125C8.78116 9.45376 7.93164 10.1993 6.91453 10.6209C5.89741 11.0425 4.76957 11.1165 3.70605 10.8316C2.64253 10.5467 1.70279 9.91866 1.03269 9.04504C0.362579 8.17141 -0.000428302 7.10103 3.79241e-07 6ZM5 2.25C4.32893 2.25025 3.67021 2.43058 3.09259 2.77217C2.51496 3.11376 2.03958 3.6041 1.71603 4.19203C1.39249 4.77996 1.23265 5.44394 1.25318 6.1147C1.2737 6.78546 1.47385 7.43843 1.83274 8.00547C2.19162 8.57252 2.6961 9.03287 3.29354 9.3385C3.89097 9.64413 4.55948 9.78385 5.22931 9.74306C5.89915 9.70228 6.54576 9.4825 7.10171 9.10665C7.65766 8.73079 8.10256 8.21264 8.39 7.60625C8.44075 7.4997 8.52063 7.40969 8.62039 7.34665C8.72016 7.2836 8.83573 7.25009 8.95375 7.25H9.74125L10.8075 6.1825C10.8656 6.12429 10.9345 6.07811 11.0105 6.04661C11.0864 6.0151 11.1678 5.99888 11.25 5.99888C11.3322 5.99888 11.4136 6.0151 11.4895 6.04661C11.5655 6.07811 11.6344 6.12429 11.6925 6.1825L12.5 6.99125L13.3075 6.1825C13.3656 6.12429 13.4345 6.07811 13.5105 6.04661C13.5864 6.0151 13.6678 5.99888 13.75 5.99888C13.8322 5.99888 13.9136 6.0151 13.9895 6.04661C14.0655 6.07811 14.1344 6.12429 14.1925 6.1825L15 6.99125L15.8075 6.1825C15.8656 6.12429 15.9345 6.07811 16.0105 6.04661C16.0864 6.0151 16.1678 5.99888 16.25 5.99888C16.3322 5.99888 16.4136 6.0151 16.4895 6.04661C16.5655 6.07811 16.6344 6.12429 16.6925 6.1825L17.5 6.99125L18.4913 6L17.2413 4.74999H8.95375C8.83573 4.7499 8.72016 4.71639 8.62039 4.65334C8.52063 4.5903 8.44075 4.50029 8.39 4.39375C8.08586 3.75213 7.60582 3.21005 7.0057 2.83055C6.40558 2.45105 5.71005 2.24973 5 2.25Z" fill="#333333"/>
</svg>
